<svg width="12" height="12" viewBox="0 0 12 12" fill="none" xmlns="http://www.w3.org/2000/svg">
<path d="M9.38965 7.24054H11.1201C11.6052 7.24055 11.9999 7.63541 12 8.12042C12 8.60552 11.6052 9.0003 11.1201 9.00031H10.4053L10.9844 10.0042C11.2268 10.4242 11.0829 10.9627 10.6631 11.2054C10.5276 11.2836 10.3769 11.3235 10.2246 11.3235C10.1482 11.3235 10.0709 11.3136 9.99512 11.2933C9.76812 11.2324 9.57842 11.0866 9.46094 10.8831L6.40625 5.59308L7.42188 3.83331L9.38965 7.24054ZM3.32227 9.00031L2.6416 10.179C2.47881 10.4609 2.18219 10.6194 1.87793 10.6194C1.72882 10.6194 1.57759 10.581 1.43945 10.5013C1.01958 10.2587 0.875802 9.72011 1.11816 9.30011L1.29102 9.00031H3.32227ZM6.54199 1.11554C6.78469 0.695631 7.32324 0.551784 7.74316 0.79425C7.94667 0.911717 8.09248 1.10145 8.15332 1.32843C8.214 1.55524 8.1828 1.79207 8.06543 1.99542L5.04883 7.22101H6.95117L7.96777 8.98077H1.28613C0.80103 8.98077 0.40625 8.58599 0.40625 8.10089C0.406351 7.61587 0.801092 7.22101 1.28613 7.22101H3.0166L5.39062 3.10968L4.74707 1.99542C4.5046 1.57529 4.64926 1.03583 5.06934 0.793274C5.48928 0.551159 6.02793 0.695849 6.27051 1.11554L6.40625 1.34991L6.54199 1.11554Z" fill="#3C3C43" fill-opacity="0.6"/>
</svg>
