<svg width="19" height="12" viewBox="0 0 19 12" fill="none" xmlns="http://www.w3.org/2000/svg">
<path d="M10.0494 3C10.0494 2.44772 10.4971 2 11.0494 2H12.0494C12.6017 2 13.0494 2.44772 13.0494 3V11C13.0494 11.5523 12.6017 12 12.0494 12H11.0494C10.4971 12 10.0494 11.5523 10.0494 11V3Z" fill="black"/>
<path d="M15.0494 1C15.0494 0.447715 15.4971 0 16.0494 0H17.0494C17.6017 0 18.0494 0.447715 18.0494 1V11C18.0494 11.5523 17.6017 12 17.0494 12H16.0494C15.4971 12 15.0494 11.5523 15.0494 11V1Z" fill="black"/>
<path d="M5.04941 6.5C5.04941 5.94772 5.49712 5.5 6.04941 5.5H7.04941C7.60169 5.5 8.04941 5.94772 8.04941 6.5V11C8.04941 11.5523 7.60169 12 7.04941 12H6.04941C5.49712 12 5.04941 11.5523 5.04941 11V6.5Z" fill="black"/>
<path d="M0.049408 9C0.049408 8.44772 0.497123 8 1.04941 8H2.04941C2.60169 8 3.04941 8.44772 3.04941 9V11C3.04941 11.5523 2.60169 12 2.04941 12H1.04941C0.497123 12 0.049408 11.5523 0.049408 11V9Z" fill="black"/>
</svg>
